<svg width="100" height="100" viewBox="0 0 24 24" fill="none" xmlns="http://www.w3.org/2000/svg">
  <path d="M9 2V4M15 2V4M9 20V22M15 20V22M7 4H17C18.1046 4 19 4.89543 19 6V8C19 9.10457 18.1046 10 17 10H7C5.89543 10 5 9.10457 5 8V6C5 4.89543 5.89543 4 7 4ZM5 14H19M12 10V14" stroke="black" stroke-width="2" stroke-linecap="round" stroke-linejoin="round"/>
  <path d="M7 20C5.89543 20 5 19.1046 5 18V14M17 20C18.1046 20 19 19.1046 19 18V14" stroke="black" stroke-width="2" stroke-linecap="round" stroke-linejoin="round"/>
</svg>
