<svg width="100" height="100" viewBox="0 0 24 24" fill="none" xmlns="http://www.w3.org/2000/svg">
  <path d="M3 5V19C5.5 18 8 17 12 18C16 17 18.5 18 21 19V5C18.5 4 16 3 12 4C8 3 5.5 4 3 5Z" stroke="black" stroke-width="2" stroke-linecap="round" stroke-linejoin="round"/>
  <path d="M3 5C5.5 4 8 3 12 4V18C8 17 5.5 18 3 19" stroke="black" stroke-width="2" stroke-linecap="round" stroke-linejoin="round"/>
  <path d="M21 5C18.5 4 16 3 12 4V18C16 17 18.5 18 21 19" stroke="black" stroke-width="2" stroke-linecap="round" stroke-linejoin="round"/>
</svg>
